<?xml version="1.0" standalone="no"?>
<!DOCTYPE svg PUBLIC "-//W3C//DTD SVG 20010904//EN"
 "http://www.w3.org/TR/2001/REC-SVG-20010904/DTD/svg10.dtd">
<svg version="1.0" xmlns="http://www.w3.org/2000/svg"
 width="944.000000pt" height="226.000000pt" viewBox="0 0 944.000000 226.000000"
 preserveAspectRatio="xMidYMid meet">

<g transform="translate(0.000000,226.000000) scale(0.100000,-0.100000)"
fill="#000000" stroke="none">
<path d="M3047 2024 c-4 -4 -7 -409 -7 -901 l0 -893 204 0 205 0 3 230 3 230
120 120 120 120 286 -347 285 -348 242 -3 c133 -1 242 0 242 3 0 5 -547 702
-679 865 -20 25 -51 64 -69 86 l-32 41 92 99 c119 128 285 307 481 517 86 92
157 171 157 176 0 5 -100 9 -222 9 l-223 1 -90 -92 c-83 -84 -251 -261 -574
-602 -68 -71 -127 -131 -132 -133 -5 -2 -9 165 -9 406 0 382 -1 410 -17 414
-31 8 -378 10 -386 2z"/>
<path d="M4940 1131 l0 -901 203 2 202 3 0 895 0 895 -202 3 -203 4 0 -901z"/>
<path d="M5780 1128 l0 -898 205 0 205 0 0 226 0 226 117 124 117 125 22 -23
c19 -20 139 -165 377 -457 29 -35 60 -73 71 -85 10 -11 39 -47 64 -78 l45 -58
244 0 245 0 -19 24 c-10 14 -148 190 -308 391 -441 558 -456 577 -453 586 2 4
109 121 238 259 456 490 487 525 478 531 -6 4 -107 7 -226 7 l-216 1 -40 -42
c-53 -55 -393 -412 -473 -497 -34 -36 -111 -117 -172 -180 l-110 -115 -1 413
c0 322 -3 412 -12 414 -7 1 -100 2 -205 3 l-193 1 0 -898z"/>
<path d="M7634 2015 c-3 -7 -4 -275 -2 -596 4 -574 4 -586 27 -669 60 -218
189 -380 374 -465 190 -88 448 -107 673 -50 267 68 441 240 516 512 21 75 22
99 25 679 l4 601 -181 0 c-99 0 -192 -2 -205 -5 l-25 -4 0 -543 c0 -298 -4
-564 -9 -591 -32 -170 -123 -277 -264 -312 -58 -15 -203 -15 -248 -1 -118 38
-201 115 -240 225 l-24 69 -3 577 -3 576 -26 7 c-49 12 -384 3 -389 -10z"/>
<path d="M1290 1495 l0 -465 465 0 465 0 0 465 0 465 -465 0 -465 0 0 -465z
m788 3 l-3 -323 -322 -3 -323 -2 0 325 0 325 325 0 325 0 -2 -322z"/>
<path d="M1570 1495 l0 -175 180 0 180 0 0 175 0 175 -180 0 -180 0 0 -175z
m210 109 c0 -3 -13 -16 -29 -29 -50 -43 -48 -117 5 -161 17 -14 22 -24 15 -28
-15 -10 -68 45 -77 78 -9 39 3 90 31 120 21 23 55 36 55 20z m20 -30 c0 -3 -9
-17 -20 -31 -26 -33 -25 -61 1 -89 32 -34 19 -54 -14 -22 -35 35 -37 91 -5
125 20 22 38 30 38 17z m30 -39 c0 -3 -6 -15 -12 -26 -10 -17 -10 -23 0 -26
14 -5 16 -33 2 -33 -5 0 -17 11 -25 24 -13 19 -14 29 -5 45 9 18 40 30 40 16z"/>
<path d="M500 705 l0 -465 465 0 465 0 0 325 0 325 -70 0 -70 0 0 -250 0 -250
-325 0 -325 0 0 320 0 320 250 0 250 0 0 70 0 70 -320 0 -320 0 0 -465z"/>
<path d="M787 883 c-4 -3 -7 -84 -7 -180 l0 -173 180 0 180 0 0 180 0 180
-173 0 c-96 0 -177 -3 -180 -7z m217 -82 c52 -54 42 -147 -20 -187 -35 -23
-44 -8 -11 19 54 43 52 135 -2 169 -24 15 -27 28 -8 28 7 0 26 -13 41 -29z
m-35 -27 c30 -38 27 -88 -6 -122 -33 -33 -44 -14 -14 24 26 33 26 54 1 87 -11
14 -20 28 -20 31 0 14 20 4 39 -20z m-31 -47 c3 -28 -12 -57 -29 -57 -14 0
-11 28 4 33 10 3 10 9 0 26 -17 28 -16 33 5 29 10 -2 18 -14 20 -31z"/>
</g>
</svg>
